<?xml version="1.0" encoding="UTF-8"?>
<svg id="Layer_1" data-name="Layer 1" xmlns="http://www.w3.org/2000/svg" viewBox="0 0 1080 1080">
  <defs>
    <style>
      .cls-1 {
        fill: #f2f4ff;
      }

      .cls-2 {
        fill: #06f;
      }
    </style>
  </defs>
  <rect class="cls-2" x="-18" y="-16" width="1116" height="1112"/>
  <g>
    <g>
      <circle class="cls-1" cx="376.39" cy="294.62" r="69.62"/>
      <circle class="cls-1" cx="539.99" cy="294.62" r="69.62"/>
      <circle class="cls-1" cx="703.58" cy="294.62" r="69.62"/>
      <circle class="cls-1" cx="539.99" cy="458.21" r="69.62"/>
      <circle class="cls-1" cx="539.99" cy="621.81" r="69.62"/>
    </g>
    <g>
      <path class="cls-1" d="m328.49,794.53h-21.71v-12.92h56.87v12.92h-21.71v59.45h-13.44v-59.45Z"/>
      <path class="cls-1" d="m409.03,838.48c-1.14,4.14-7.65,16.54-24.3,16.54-15.51,0-26.88-11.37-26.88-27.4s11.38-27.4,26.88-27.4c14.48,0,25.85,11.38,25.85,26.37,0,1.55-.21,2.79-.31,3.72l-.21,1.45h-39.29c1.14,7.34,6.62,12.41,13.96,12.41,6.1,0,9.82-3.51,10.86-5.69h13.44Zm-11.37-15.51c-1.14-6.72-5.58-11.89-12.93-11.89-7.86,0-12.41,5.17-13.96,11.89h26.88Z"/>
      <path class="cls-1" d="m418.33,781.61h12.92v72.38h-12.92v-72.38Z"/>
      <path class="cls-1" d="m490.18,838.48c-1.14,4.14-7.65,16.54-24.3,16.54-15.51,0-26.88-11.37-26.88-27.4s11.37-27.4,26.88-27.4c14.48,0,25.85,11.38,25.85,26.37,0,1.55-.21,2.79-.31,3.72l-.21,1.45h-39.29c1.14,7.34,6.62,12.41,13.96,12.41,6.1,0,9.82-3.51,10.86-5.69h13.44Zm-11.37-15.51c-1.14-6.72-5.58-11.89-12.93-11.89-7.86,0-12.41,5.17-13.96,11.89h26.88Z"/>
      <path class="cls-1" d="m503.62,813.66h-8.79v-12.41h8.79v-7.76c0-7.86,5.07-12.93,12.93-12.93h11.37v11.38h-7.76c-2.07,0-3.62,1.55-3.62,3.62v5.69h11.37v12.41h-11.37v40.33h-12.93v-40.33Z"/>
      <path class="cls-1" d="m583.62,827.62c0,16.03-11.37,27.4-26.88,27.4s-26.88-11.37-26.88-27.4,11.38-27.4,26.88-27.4,26.88,11.38,26.88,27.4Zm-12.93,0c0-9.31-6.2-15.51-13.96-15.51s-13.96,6.2-13.96,15.51,6.2,15.51,13.96,15.51,13.96-6.2,13.96-15.51Z"/>
      <path class="cls-1" d="m591.37,801.26h11.89l1.03,5.17h.52c.93-1.14,2.17-2.17,3.52-3.1,2.38-1.55,6-3.1,10.96-3.1,11.89,0,20.68,8.79,20.68,22.23v31.54h-12.93v-30.5c0-6.72-4.65-11.37-11.37-11.37s-11.37,4.65-11.37,11.37v30.5h-12.93v-52.73Z"/>
      <path class="cls-1" d="m722.23,834.34c-1.65,8.27-8.17,20.68-24.82,20.68-15.51,0-26.88-11.37-26.88-27.4s11.37-27.4,26.88-27.4c16.65,0,23.16,12.41,24.82,20.16h-12.92c-1.14-3-4.14-8.27-11.89-8.27s-13.96,6.2-13.96,15.51,6.2,15.51,13.96,15.51,10.75-5.17,11.89-8.79h12.92Z"/>
      <path class="cls-1" d="m761.31,848.82h-.52c-.93,1.14-2.17,2.17-3.62,3.1-2.48,1.55-6.1,3.1-11.38,3.1-11.99,0-19.13-7.34-19.13-16.03,0-10.34,7.24-17.58,21.71-17.58h11.89v-1.03c0-5.79-3.52-9.82-9.31-9.82s-8.79,3.72-9.31,6.72h-12.93c1.14-8.69,8.17-17.06,22.23-17.06s22.23,8.89,22.23,20.16v33.6h-10.86l-1.03-5.17Zm-1.03-17.58h-10.86c-6.72,0-9.82,2.59-9.82,6.72s3,6.72,8.27,6.72c7.86,0,12.41-4.55,12.41-11.89v-1.55Z"/>
      <path class="cls-1" d="m649.86,801.26h12.93v52.73h-12.93v-52.73Z"/>
      <circle class="cls-1" cx="656.32" cy="786.03" r="7.65"/>
      <polygon class="cls-1" points="561.39 779.03 574.83 779.03 562.42 794.02 551.57 794.02 561.39 779.03"/>
    </g>
  </g>
</svg>